<?xml version="1.0" encoding="UTF-8"?>
<svg id="Red" xmlns="http://www.w3.org/2000/svg" viewBox="0 0 149.85 47.37">
  <defs>
    <style>
      .cls-1 {
        fill: #d22630;
      }
    </style>
  </defs>
  <path class="cls-1" d="M24.58,14.97h5.36v17.42h-5.36v-7.95h-4.21v7.95h-5.41V14.97h5.41v7.26h4.21v-7.26ZM45.06,22.56c.98,1.68,1.09,4.11.4,6.09-.69,1.98-2.08,2.95-3,3.45-.93.5-2.38.76-3.8.76s-3.25-.31-4.48-1.29c-1.23-.98-2.05-2.05-2.43-3.5-.38-1.45-.61-4.05.94-6.1,1.55-2.05,3.5-2.43,4.4-2.58.8-.14,1.33-.12,1.41-.12,0,0,1.74-.1,3.14.45,1.4.55,2.45,1.17,3.43,2.85ZM40.49,24.31c-.01-.98-.17-1.72-.31-2.08-.26-.65-.72-1.38-1.5-1.38-.09,0-.17,0-.27.03-.42.08-.82.52-1.18,1.31-.32.69-.32,1.77-.32,3.27,0,.43,0,.9-.01,1.4-.04,2.29.16,2.98.65,3.72.27.41.63.66,1,.71.31.04.62-.05.9-.29.79-.67.98-2.09,1.01-2.51.04-.42.03-2.46.02-4.18ZM58.66,19.73c-1.8-.76-3.56-.31-4.58.18-1.02.49-1.68,1.49-1.71,1.49v-1.71h-5.02v12.71h5.02s0-9.14,0-9.14c0-.18.6-.86,1.29-1.22.68-.37,1.5-.16,1.78.18.4.48.4,1.03.4,1.34v8.85h4.95v-9.68c-.04-.61-.34-2.22-2.14-2.99ZM75.82,22.67c.95,1.8.81,4.14.8,4.14h-8.95v2.58s.09.52.3.79c.2.27.93,1.33,3.38.94,2.72-.43,2.64-2.37,2.7-2.37h2.15s-.03,1.29-.92,2.14c-.89.85-2.48,1.73-4.25,1.91-1.77.18-4.28.23-6.3-1.45-1.18-.99-1.72-2.05-2.07-3.04-.43-1.22-.56-3.59.44-5.6,1-2.01,3.54-3.61,6.68-3.45,3.14.16,4.94,1.3,6.04,3.41ZM71.4,23.98c0-.68-.12-1.42-.2-1.66v-.04c-.08-.24-.2-.64-.68-1.12-.47-.47-1.36-.46-1.81-.13-.36.26-.79.88-.93,1.66-.12.66-.11,1.95-.11,2.33h3.73c0-.14,0-.43,0-1.04ZM121.46,22.67c.95,1.8.8,4.14.78,4.14h-8.94v2.58s.09.52.29.79c.2.27.93,1.33,3.38.94,2.72-.43,2.64-2.37,2.7-2.37h2.15s-.03,1.29-.92,2.14c-.89.85-2.48,1.73-4.25,1.91-1.77.18-4.28.23-6.3-1.45-1.18-.99-1.72-2.05-2.06-3.04-.43-1.22-.56-3.59.44-5.6,1-2.01,3.54-3.61,6.68-3.45,3.13.16,4.94,1.3,6.04,3.41ZM117.04,23.98c0-.68-.12-1.42-.2-1.66v-.04c-.08-.24-.2-.64-.68-1.12-.46-.48-1.36-.46-1.81-.13-.36.26-.79.88-.93,1.66-.12.66-.12,1.95-.11,2.33h3.73c0-.14,0-.43,0-1.04ZM105.98,19.68l-1.93,7.13-2.16-7.13h-4.38l-1.95,7.13-2.22-7.13h-6.87l-2.5,6.05-2.34-6.05h-5.46l5.08,13.02s0,.12-.11.5c-.11.37-.46,1.29-1.08,1.95-.62.65-1.29.48-1.29.48,0,0,.27-.23.42-.6.16-.37.11-1.03-.18-1.61-.28-.58-1.06-1.04-2.26-.81-1.2.23-1.73,1.33-1.61,2.37.12,1.04.8,1.93,2.49,2.23,1.7.3,2.72-.32,3.66-1.15.94-.83,1.7-2.95,1.7-2.95l5.29-12.96,3.76,12.27h4.25l2.03-7.37,2.29,7.37h4.14l3.5-12.71h-2.26ZM123.74,32.4h4.82V14.97h-4.82v17.42ZM130.06,14.97v17.42h4.82V14.97h-4.82Z"/>
</svg>